<?xml version="1.0" encoding="utf-8"?>
<!-- Generator: Adobe Illustrator 24.0.2, SVG Export Plug-In . SVG Version: 6.00 Build 0)  -->
<svg version="1.1" id="Capa_1" xmlns="http://www.w3.org/2000/svg" xmlns:xlink="http://www.w3.org/1999/xlink" x="0px" y="0px"
	 viewBox="0 0 351.23 77.13" style="enable-background:new 0 0 351.23 77.13;" xml:space="preserve">
<style type="text/css">
	.st0{clip-path:url(#SVGID_2_);fill:#454691;}
</style>
<g>
	<defs>
		<rect id="SVGID_1_" y="0" width="351.23" height="77.13"/>
	</defs>
	<clipPath id="SVGID_2_">
		<use xlink:href="#SVGID_1_"  style="overflow:visible;"/>
	</clipPath>
	<path class="st0" d="M350.25,18.41c-0.96-0.24-1.36-0.38-1.63-0.41c-0.26-0.04-0.32,0.01-0.37,0.05c-0.03,0.05-0.04,0.11-0.05,0.16
		c-0.01,0.02-0.01,0.04-0.02,0.06l-0.01,0.02c0-0.02-0.01,0.05,0-0.04c0.01-0.07,0.02-0.15,0.03-0.24l-0.03,0.29h0l0.01,0l0.09,0.01
		c0.09,0.02,0.18,0.04,0.26,0.06c0.23,0.06,0.44,0.11,0.62,0.16c0.42,0.1,0.82,0.18,1.15,0.22c0.66,0.07,0.96,0,0.91-0.06
		c-0.05-0.06-0.35-0.14-0.58-0.21C350.4,18.43,350.21,18.38,350.25,18.41"/>
	<polygon class="st0" points="306.46,10.45 307.32,10.34 300.25,10.3 	"/>
	<path class="st0" d="M261.8,7.73c4.18,0.96,16.18,0.84,24.12,1.56l1.3,0.24l3.62-0.36C281.18,8.69,268.6,8.33,261.8,7.73"/>
	<path class="st0" d="M238.11,4.78c1.45,0.36-5.16-0.06,5.54,0.42c-0.53-0.07-0.69-0.09-1-0.13C241.69,5.01,240.37,4.93,238.11,4.78
		"/>
	<path class="st0" d="M242.65,5.07C247.35,5.33,239.59,4.66,242.65,5.07"/>
	<path class="st0" d="M220.94,3.79L227.15,4c-1.28-0.26-6.79-0.7-4.73-0.67C216.06,3,217.35,3.26,220.94,3.79"/>
	<path class="st0" d="M215.03,3.88l3.22,0.13C217.69,3.9,216.85,3.81,215.03,3.88"/>
	<path class="st0" d="M225.07,4.29l-6.82-0.28c0.89,0.18,0.97,0.42,3.13,0.15C220.81,4.33,222.17,4.22,225.07,4.29"/>
	<path class="st0" d="M228.91,4.68c3.46,0.42,7.94,0.78,1.71,0.63c5.92,0.34,8.46,0.31,8.03,0.17
		C238.23,5.3,234.83,5.06,228.91,4.68"/>
	<path class="st0" d="M259.48,8.33l4.63,0.48l4.03,0C266.13,8.81,259.2,8.09,259.48,8.33"/>
	<path class="st0" d="M182.27,1.09c-0.4,0.14,2.08,0.48,2.54,0.7l4.61,0.03C187.05,1.6,182.57,1.32,182.27,1.09"/>
	<path class="st0" d="M184.8,1.79l-6.89,0.02C184.06,2.03,185.19,1.98,184.8,1.79"/>
	<polygon class="st0" points="213.87,4.6 225.15,4.87 211.7,4.45 	"/>
	<polygon class="st0" points="155.97,0.76 159.87,0.4 152.93,0.95 	"/>
	<path class="st0" d="M138.57,0.86c2.88-0.3-3.95-0.48-0.91-0.67c-4.73,0.06-8.76,0.32-12.39,0.55
		C129.13,0.6,133.25,0.63,138.57,0.86"/>
	<path class="st0" d="M119.17,1.07c1.93-0.07,3.92-0.2,6.1-0.34C123.22,0.81,121.21,0.91,119.17,1.07"/>
	<path class="st0" d="M166.18,1.54c-0.53-0.09-1.55-0.33-5.4-0.42l2.7,0.42C164.3,1.54,165.23,1.54,166.18,1.54"/>
	<path class="st0" d="M163.57,1.56l-0.1-0.01c-2.93-0.01-4.96-0.01-5.83-0.01C158.39,1.53,160.18,1.54,163.57,1.56"/>
	<path class="st0" d="M166.86,1.54h-0.68C166.44,1.59,166.6,1.6,166.86,1.54"/>
	<path class="st0" d="M195.93,3.04c-4.05,0-12.47-0.13-4.35,0.63C194.49,3.52,189.84,3.07,195.93,3.04"/>
	<path class="st0" d="M170.22,2.11c0,0,1.83,0.06,3.65,0.11c1.83,0.07,3.65,0.14,3.65,0.14c-0.14-0.12-1.46-0.32,0.55-0.38
		c0,0-1.96,0.02-3.93,0.05L170.22,2.11z"/>
	<path class="st0" d="M166.64,2.22c0,0,0.89-0.03,1.79-0.06c0.9-0.02,1.79-0.04,1.79-0.04l-2.71-0.07L166.64,2.22z"/>
	<path class="st0" d="M131.67,1.45c-3.15,0.19-6.6,0.21-10.49,0.25c4.17,0.07,8.48,0.11,12.58,0.1
		C134.34,1.67,136.14,1.43,131.67,1.45"/>
	<path class="st0" d="M147.17,1.54c-0.22,0.01-0.5,0.02-0.7,0.03C146.9,1.6,147.25,1.61,147.17,1.54"/>
	<path class="st0" d="M82.92,2.06c0.21,0.03,0.4,0.05,0.61,0.07c0.05-0.03,0.08-0.05,0.14-0.08L82.92,2.06z"/>
	<path class="st0" d="M134.47,1.88c3.14,0.08,5.01-0.03,6.79-0.17c-2.35,0.05-4.83,0.08-7.5,0.09
		C133.51,1.87,133.46,1.91,134.47,1.88"/>
	<path class="st0" d="M108.48,1.3c1.63,0.09,3.49,0.16,5.43,0.22C112.32,1.39,109.06,1.18,108.48,1.3"/>
	<path class="st0" d="M145.42,1.45c0.16-0.01,0.3-0.01,0.47-0.02C144.86,1.34,144.99,1.38,145.42,1.45"/>
	<path class="st0" d="M145.42,1.45c-1.61,0.06-2.88,0.17-4.16,0.27c1.91-0.04,3.68-0.09,5.21-0.15
		C146.09,1.54,145.7,1.49,145.42,1.45"/>
	<path class="st0" d="M71.33,4.83c0.56-0.38,8.79-0.74,15.9-0.4c6.99-0.38,2.4-1.62-3.7-2.29c-0.22,0.17-0.21,0.34-7.4,0.6
		c2.51,0.23,15.96,0.39,9.89,0.81c-9.53,0.28-7.81-0.09-12.44-0.29c1.97,0.25-1.06,0.43-4.33,0.62c-3.26,0.19-6.77,0.37-5.73,0.75
		l8.37-0.19C72.04,4.55,69.01,4.72,71.33,4.83"/>
	<path class="st0" d="M97.23,2.01l2.96-0.09c-3.38-0.02-5.79-0.14-10.24-0.39c-4.92,0.25-5.94,0.4-6.28,0.53l14.57-0.12L97.23,2.01z
		"/>
	<path class="st0" d="M113.49,1.78c-2.31,0.42-9.42,0.66-5.06,1.09c8.7-0.05,6.09-0.37,11.29-0.57c-14.04,0.13,4.03-0.25-6.12-0.47
		c2.76-0.08,5.24-0.11,7.58-0.13c-2.53-0.07-4.97-0.13-7.26-0.18c0.13,0.01,0.22,0.02,0.32,0.03l0.07,0l-0.01,0.01
		c0.61,0.05,0.81,0.08,0.12,0.05c-0.05,0-0.22,0.01-0.29,0.01C114.03,1.68,113.77,1.73,113.49,1.78c-4.07-0.08-0.64-0.11,0.63-0.17
		c0.05-0.02,0.16-0.04,0.17-0.06c-0.01,0-0.03,0-0.05-0.01c0,0-3.52,0.07-7.03,0.14c-3.51,0.12-7.02,0.23-7.02,0.23
		C103.16,1.94,106.88,1.81,113.49,1.78"/>
	<path class="st0" d="M184.05,4.24c-0.44-0.05-0.41-0.08-0.45-0.12C182.69,4.15,182.34,4.17,184.05,4.24"/>
	<path class="st0" d="M178.27,3.78c1.02-0.03,1.88-0.18,5.2-0.01c2.88,0.25-0.02,0.2,0.12,0.35c2-0.03,7.02-0.01,0.75-0.49l-1,0.02
		c-5.65-0.38-12.93-1.05-11.94-1.08C173.06,3,174.52,3.29,178.27,3.78"/>
	<path class="st0" d="M145.49,2.78l-11.71,0.23l5.96,0.36l-0.3-0.22C146.1,3.23,144.66,2.95,145.49,2.78"/>
	<polygon class="st0" points="81.58,1.86 83.12,1.39 76.38,2.07 	"/>
	<polygon class="st0" points="66.41,1.89 66.98,1.5 62.97,1.7 	"/>
	<path class="st0" d="M166.46,32.07l3.43,0.32C168.27,32.22,167.23,32.13,166.46,32.07"/>
	<path class="st0" d="M141.74,28.93l-0.63,0.12C142.26,29.08,142.74,29.06,141.74,28.93"/>
	<path class="st0" d="M303.39,43.53c4.78,1.57,10.11,3.43,9.63,2.85l-1.4-0.78C308.18,44.87,305.58,44.18,303.39,43.53"/>
	<path class="st0" d="M131.18,25.44c0.47,0.07,0.96,0.15,1.45,0.23c1.22-0.07,2.38-0.13,3.4-0.19
		C134.57,25.46,132.92,25.45,131.18,25.44"/>
	<path class="st0" d="M127.54,27.01l-6.57-0.68C122.44,26.52,124.56,26.74,127.54,27.01"/>
	<path class="st0" d="M233.52,54.98l-4.03,0.16C235.75,55.57,233.01,55.16,233.52,54.98"/>
	<path class="st0" d="M88.99,10.09c4.29,0.52,7.7,0.88,10.71,1.16C94.54,10.55,90.39,9.84,88.99,10.09"/>
	<path class="st0" d="M156.17,35.42c2.09,0.19,3,0.21,2.95,0.11C156.96,35.33,155.74,35.26,156.17,35.42"/>
	<path class="st0" d="M112.12,12.35c-0.76-0.1-1.5-0.2-2.26-0.31c-3.15-0.22-6.32-0.43-10.16-0.8
		C103.51,11.77,107.88,12.27,112.12,12.35"/>
	<path class="st0" d="M62.41,60.12c-0.35,0.01-0.78,0.03-1.1,0.04C61.21,60.22,61.7,60.19,62.41,60.12"/>
	<path class="st0" d="M84.48,66.79c1.4-0.18,3.69-0.48,5.85-0.77C89.27,66.12,87.5,66.35,84.48,66.79"/>
	<path class="st0" d="M5.25,0.06C8.49,0.06,5.76,0.01,5.25,0.06"/>
	<path class="st0" d="M20.93,2.08c-0.69,0.03-1.21,0.08-1.3,0.18C19.91,2.15,20.36,2.1,20.93,2.08"/>
	<path class="st0" d="M144.34,12.83c0.09,0.01,0.17,0.02,0.28,0.03C143.67,12.68,143.83,12.71,144.34,12.83"/>
	<path class="st0" d="M10.12,0.32C8.9,0.24,7.5,0.18,5.98,0.13C6.65,0.16,7.91,0.22,10.12,0.32"/>
	<path class="st0" d="M9.47,0.1c1.11,0.04,1.99,0.06,2.83,0.09C12.7,0.13,12.34,0.07,9.47,0.1"/>
	<path class="st0" d="M0.73,0.06c1.85-0.01,3.58,0.03,5.24,0.07C5.34,0.1,5.08,0.07,5.25,0.06C4.3,0.06,2.96,0.06,0.73,0.06"/>
	<path class="st0" d="M56.58,44.88c0.21,0.02,0.46,0.05,0.69,0.08C60.53,44.95,59.1,44.9,56.58,44.88"/>
	<path class="st0" d="M301.47,48.04c0.15,0.01,0.23,0.01,0.37,0.02c-0.15-0.02-0.34-0.05-0.47-0.07L301.47,48.04z"/>
	<path class="st0" d="M289.9,46.86c4.97,0.14,7.75,0.56,11.46,1.13l-3.66-1.71L289.9,46.86z"/>
	<path class="st0" d="M225.33,42.35l-7.85-2.07c9.71,1.48,16.57,2.96,9.24,0.97c-0.35,0.28-2.44,0.04-5.41-0.5
		c-2.99-0.55-6.86-1.37-10.74-2.17c-7.76-1.62-15.59-3.04-16.27-2.46l-5.27-1.21c1.53,0.27,1.78,0.24,3.29,0.51
		c-5.12-1.22-7.1-1.27-9.45-1.31c-2.36-0.06-5.08-0.04-11.74-0.97c-4.64-0.69-7.86-1.29-4.67-1.06l-10.41-0.97
		c-3.01-0.41-2.25-0.55,0.75-0.14l-15.82-1.89l0.12-0.02c-2.28-0.09-7.44-0.28-9.95-0.37c-4-0.6,2.04,0.06,1.02-0.21l-8.81-0.57
		c-3.53-0.72,3.77-0.31,9.82,0.36c-8.04-2.18-7.31-0.4-24.9-3l8.3,0.67c-5.25-1.31-11.75-1.69-21.06-3.13
		c2.19,0.48,18.61,3.12,9.06,2.48c-2.67-0.38-6.2-0.78-11.36-1.04c0-0.49-5.02-0.88-11.3-1.49l0.5-0.59
		c-6.8-0.51-6.3-0.13-10.32-0.25c-7.55-0.83-9.09-1.5-10.83-2.09c-12.18-1.22,8.34,1.55-6.09,0.37c-7.37-0.78-13.19-1.02-20.55-0.9
		l-0.02,4.39c2.69-0.08,5.62-0.16,8.91-0.25c7.07,0.27-1.24,0.38,1.3,0.58l6.27-0.45c1.53,0.03,1.03,0.18,0.78,0.26
		c5.28-0.11,0.44-0.65,8.75-0.65c1.13-0.33,5.38,0.03,10.63,0.49c5.24,0.45,11.49,1.03,16.66,0.89c2.52,0.31-1.24,0.33-0.48,0.62
		c14.13,0.21,12.11,0.24,23.72,0.17l9.83,0.99c-7.21-0.9,2.07-0.95,10.21-0.89c-2.55-0.39-4.74-0.73-6.2-0.92l12.96,0.49
		c1.56,0.22,0.24,0.34-1.9,0.47c0.88,0,1.73,0,2.38,0.01c4.61,0.56,2.18,0.76-1.15,0.89c-1.57-0.24-3.12-0.47-4.63-0.7
		c-3.22,0.18-6.23,0.43-5.59,0.84c0.85-0.02,2.47,0.01,4.25,0.09c-0.84,0.05-1.38,0.11-1,0.2c0.43,0.09,1.79,0.04,3.92,0.02
		l2.89,0.9l0.73-0.23l8.43,0.82c4.21,0.44,8.42,0.87,8.42,0.87c6.06,0.13,11.75,0.17,18.31,0.42c6.56,0.24,14.01,0.69,23.58,1.7
		c-4.81-0.05-1.12,0.73-1.45,1.31c-5.13-1.28-14.82-1.45-24.72-2.52c5.17,0.57,4,0.76,2.68,0.73c0,0,4.43,0.3,8.86,0.6
		c4.43,0.35,8.86,0.69,8.86,0.69c-0.46,0.46,3.71,0.8,8.29,1.59c-3.36-1.44,13.23,0.98,20.44,1.7c0.4,0.4-1.37,0.48-10.1-0.76
		c9.55,2.03,12.63,0.52,22.01,2.51c-2.14-0.3-3.28-0.51-4.15-0.47c5.03,0.41,17.18,2.43,14.27,2.3l-2.13-0.31
		c14.14,2.2,43.12,6.45,45.37,5.88c0.13,0.13-2.01,0.74-2.89,0.79c0,0,6.43,0.24,12.87,0.36c6.43,0.13,12.85,0.11,12.85,0.11
		c-2.32,0.47,6.1,3.18-5.78,2.24c3.39,0.5,7.58,1.13,14.8,1.53c-2.32-0.31-5.69-1.6-2.51-1.36c8.64,1.6,6.02,0.96,16.7,2.49
		c-3.47-0.42,0.48-1.27,5.97-0.81c-0.87,0.11,0.39,1.16-1.64,1.13c1.5-0.01,3.02,0,4.51-0.05c1.48-0.03,2.91-0.03,4.28,0.16
		l0.4-2.39c-1.55-0.04-3.11-0.13-4.67-0.26c3.38,0.32,0.72-0.81-2.16-1.69c0.67,0.24-2.19-0.3-5.67-1.14
		c-3.47-0.83-7.59-1.89-9.4-2.24l5.61,1.61c-3.74-0.96-6.63-1.54-8.98-1.92c-2.36-0.4-4.26-0.64-6.16-0.88
		c-3.79-0.49-7.58-0.97-15.02-2.87c1.86,0.22,4.8-0.27-2.74-2.31c-3.61-0.32-16.05-1.2-29.37-3.86l-2.46-0.91l-10.24-1.93
		c6.52,0.51,24.68,2.92,34.52,4.67c-5.57-1.65-1.47-0.78-9.93-2.81c-2.91-1.02,4.71,0.66,7.21,1.26c0,0-4.91-1.24-9.81-2.49
		c-4.92-1.21-9.83-2.43-9.83-2.43c0.73,0.82-15.26-2.78-14.63-2.03l10.81,2.06c5.39,1.08,10.78,2.17,10.78,2.17
		c0.71,0.87-12.78-1.16-26.78-4.21c-3.52-1.01,2.92-0.61,2.67-0.89c-1.87-0.19-13.44-2.31-14.71-2.68l6.05,0.81
		c-7.81-1.79-12.98-1.59-22.36-3.74c-3.26-0.57-9.66-2.34-10.29-2.02c5.24,1.54,5.92,4.05,2.29,4.09c-0.57-0.11-4.83-0.91-9.42-1.77
		c-4.59-0.85-9.51-1.74-11.36-2.17c-5.33-1.28,8.29-0.39,3.76-1.49c-0.22,0.16-3.24,0-4.49-0.08c-3.43-0.58,1.5-0.4-6.01-1.23
		c-1.33,0.52-15.24-1.86-3.61,0.15c-7.35-0.67-7.78-1.06-16.39-2.01c2.69,0.75-7.9,0.61-15.27,0.03c0.45-0.13-1.18-0.53-1.96-0.71
		c-15.04-1.64-23.09-2.73-37.14-4.02c-1.28-0.28-8.04-1.07-5.13-1.11c-2.03-0.06-3.91,0.02-8.25-0.34
		c-8.35-1.28,9.68,0.72,3.34-0.52c-0.58,0.34-11.26-0.39-17.46-0.61c1.85,0.75,14.27,1.24,20.47,1.53
		c-0.04,0.85-10.88,0.77-25.6,0.07c-11.69-0.63-5.03-0.91-7.06-0.93C45.55,5.23,48.7,7,30.52,5.34c-7.2-0.9-0.27-1.09-1.86-1.56
		c9.54,0.29,14.61,1.19,21.06,1.6L41.8,4.61c3.04,0.01,9.41,0.31,12.86,0.71c-3.01-0.45-12.28-1.14-22.93-1.74
		c-10.64-0.61-22.66-1-31.16-1.21C0.39,2.37,0.21,2.38,0,2.39v0.74c3.03-0.17,7.51-0.3,5.2-0.53L0,2.65v0.22l0.18,0
		C1.79,3.02,1.27,3.13,0,3.22V2.3c2.39-0.2,7.72-0.27,3.14-0.44c7.22-0.26,15.33-0.57,25.47,0.02l1.88,0.68
		c-0.21-0.19-6.62-0.59-9.48-0.48c4.24-0.17,15.53,1.34,20.19,0.7L34.11,2.1c7.24-0.07,16.21-0.33,25.15,0.05
		c-4.06-0.7-2.07,0.04-8.41-0.86c5.51,1.08-22.98-0.84-14.12,0.39C30.2,0.63,25.4,0.92,16.83,0c0.26,0.22,3.04,0.45-4.53,0.19
		c-0.34,0.05-1.15,0.11-1.67,0.15c-0.23-0.01-0.31-0.01-0.51-0.02c0.15,0.01,0.26,0.02,0.42,0.03c-0.33,0.03-0.36,0.03,0.16,0.01
		c1.8,0.12,3.26,0.25,3.85,0.38C11.89,1,5.15,0.98,0,1.09v3.33c2.2-0.03,4.1-0.08,5.3-0.13C9.76,4.45,3.43,4.5,5.86,4.74l6.05-0.25
		c0.59,0.45,11.83,1.1,1.32,1.04c0,0,2.36,0.08,4.72,0.16l4.72,0.19c5.56,0.48,13.2,1.01,17.94,1.13c4.45,0.37,11.31,0.25,7.39,0.34
		l14.87,0.76l0.13,0.12c14.65,1.06,30.2,1.48,46.85,3.81c4.93,0.33,10.03,0.67,18.25,1.61l1.57,0.55
		c6.33,0.48,18.91,2.34,21.67,2.24c6.69,1.76,30.59,3.65,41.6,5.31l0.48-0.45c7.6,1.02,14.9,1.88,24.33,3.18l-0.51-0.53
		c8.18,0.9,20.72,3.88,33.41,6.62c-0.9-0.02-4.1-0.76-6.36-1.33c14.95,4.15,32.11,6.5,45.6,10.64c3.45,0.7,5.9,1.37,8.27,2.08
		c-0.32-0.08-0.6-0.14-0.85-0.19c0.35,0.09,0.87,0.22,1.4,0.36c1.49,0.45,3.02,0.91,4.69,1.42c-1.41-0.46-2.75-0.89-3.93-1.23
		c2.63,0.65,6.64,1.59,10.6,2.43l1.56,0.87c0.32,0.07,0.58,0.13,0.91,0.2c3.82,1.08,3.16,0.51,1.18-0.33c2,0.39,3.84,0.72,5.27,0.92
		c2.96,1.42,10.28,2.2,14.45,3.97c1.3,0.08,5.8,1.02,10.61,1.42l0.61-3.63c-1.46-0.3-2.88-0.4-4.19-0.45
		c-1.28-0.03-2.5-0.07-3.59-0.09c-2.18-0.05-3.84-0.02-4.42,0.17c-0.13-0.12-1.31-0.26,0.86-0.11c-4.47-0.44-8.94-0.88-12.96-0.95
		l-1.84-0.77c0,0-2.45-0.02-4.9-0.04c-2.45-0.04-4.91-0.09-4.91-0.09c-5.87-1.02-8.28-1.54-2.38-1.33
		c-7.11-0.45-9.99-0.78-12.6-1.05c-2.61-0.28-4.96-0.53-11.02-1.05l0.64-0.31c-4.3-0.61-11.24-1.1-13.79-1.81
		c-9.5-2.15-47.51-7.38-72.23-11.03c4.67,1.73-11.47-1.9-12.56-1.07c-1.41-0.44-4.87-0.95-0.81-0.76
		c-12.71-1.08-19.04-2.33-27.88-2.3c-1.43-0.39,2.75-0.18,1.47-0.45c-1.02-0.03-4.06-0.08-5.37-0.35c-1.28-0.27,1.88-0.08,3.9-0.04
		c-13-0.98-14.37-0.17-15.37,0.55c-6.55-0.83-9.84-0.98-14.63-0.76c-2.27-0.4-6.08-0.91,2-0.51c-4.54-0.35-27.72-1.98-28.21-1.34
		c-1.41-0.24-6.34-0.38-7.54-0.37c-10.19-0.55-11.07-0.71-21.1-1.08l2.77,0.22c-3.99,0.6-8.34-0.17-16.42-0.25l0.23-0.07
		c-8.62-0.43-10.95-0.38-12.86-0.35c-1.91,0.04-3.39,0.09-10.32-0.13l-0.01,2.6c0.71,0.04,1.82,0.09,3.07,0.16l-0.98-0.5
		c0.86-0.5,4.9-0.27,10.02,0.26c5.12,0.52,11.32,1.37,16.6,1.71l-3.77-0.64c5.79,0.2,15.94,3.04,21.71,3.74
		c1.25,0.22-2.01-0.06-3.77-0.17c15.07,2.15,2.03-0.42,13.33,0.58c2.04,0.55-2.77,0.58,4.81,1.42c3.75,0.66,22.15,1.16,32.43,2.86
		c-2.26-0.49-4.49-0.98,0.77-0.64c4.02,0.39,9.43,1.09,14.72,1.97c5.29,0.82,10.5,1.54,14.16,1.59c1.01,0.2,1.39,0.32,1.42,0.39
		c3.07,0.31,8.05,0.82,12.74,1.29c2.34,0.22,4.61,0.44,6.52,0.62c1.91,0.18,3.46,0.31,4.39,0.34c2.69,1.21,12.12,2.57,20.83,4.15
		c8.71,1.55,16.7,3.08,16.48,3.8c0,0,4.67,0.99,9.34,1.88c4.66,0.88,9.33,1.77,9.33,1.77l-0.51,0.06
		c11.87,2.39,16.01,3.18,20.29,3.76c2.65,0.76,0.67,0.41,0.43,0.44c2.97,0.76,5.28,1.61,6.96,2.58l0.43-3.29
		c-0.72,0.16-1.92-0.01-3.01-0.19c-0.56-0.09-1.15-0.19-1.76-0.25c-0.54-0.04-1.06-0.08-1.56-0.12c-2.03-0.15-3.85-0.27-5.72-0.37
		c-3.73-0.19-7.64-0.3-13.78-0.47L239,50.91c-4.04-0.04-25.53-2.62-42.95-3.03c0.17-0.05,0.54-0.12,1.92-0.11
		c-9.79-0.28-21.49-1.19-31.66-1.72c-10.19-0.51-18.76-0.74-22.38,0.02l-12.91-0.02c16.68,0.77-2.52,0.69,4.34,1.25
		c-6.57-0.13-16.95-1.25-8.88-0.99l1.26,0.14c3-0.79-20.72-1.25-20.24-1.9c-13.07-0.61-25.96-1.45-38.77-2.21
		c-6.41-0.34-12.8-0.54-19.17-0.48c-3.17,0.02-6.37,0.13-9.5,0.3c-3.13,0.16-6.2,0.31-9.21,0.24l0.18,4.11
		c0.47-0.04,1.04,0.03,1.8,0.17c0.38,0.07,0.79,0.16,1.25,0.23c0.49,0.08,0.9,0.11,1.31,0.15c1.65,0.16,3.27,0.25,4.87,0.32
		c1.59,0.07,3.15,0.13,4.68,0.24c1.58,0.1,3.15,0.21,4.72,0.31l-3.5-0.96c0,0,2.68,0.18,5.37,0.36l5.37,0.32
		c2.81,0.32,3.76,0.78-3.91,0.33c4.01,0.66,12.88,0.32,13.1,0.16c15,0.94-5.9,0.61-1.3,0.81l6.26,0.21l-1.41-0.14
		c5.08-0.1,5.54-0.38,14.75-0.04c5.83,0.33,2.98,0.54,5.27,0.64c-0.01,0.03,0.18,0.05,0.72,0.07c0.54,0.02,1.42,0.04,2.8,0.05
		l13.51,0.46l-5.38-0.75c5.99-0.11,12.69,0.49,6.49-0.41c4.56,0.66,17.14,1.32,29.29,2.06c12.15,0.73,23.87,1.38,26.68,1.69
		c4.22,0.01,8.41,0.03,12.84,0.04c2.2,0.03,4.44,0.09,6.77,0.23l0.88,0.06c0.3,0.02,0.66,0.03,0.95,0.04
		c0.59,0.01,1.19,0.03,1.8,0.05c0.59,0.03,1.18,0.06,1.75,0.13c0.55,0.07,1.15,0.18,1.47,0.33c-0.56-0.28-1.44-0.5-1.49-0.64
		c-0.04-0.07,0.1-0.13,0.47-0.14c0.18,0,0.44,0.01,0.73,0.06c0.29,0.04,0.67,0.15,0.88,0.3l0.26-1.11
		c-0.83,0.27-2.17,0.46-4.01,0.48c0.78-0.36,0.19-0.53-1.28-0.65c-0.74-0.05-1.7-0.1-2.89-0.06c-1.1,0.04-2.35,0.09-3.68,0.14
		c-5.32,0.19-11.98,0.32-15.62,0.09c3.24,0.13-3.11,0.51-8.93,1.09c-5.82,0.57-11.16,1.1-6.13,1.15c-7.36,0.47-0.49-0.45-6.08-0.36
		c-8.69,0.88-18.35,0.83-28.56,0.65c-10.22-0.16-20.98-0.27-31.88,0.08c-0.33,0.19,3.32,0.36-1.35,0.74c0,0-2.88-0.13-5.77-0.27
		c-2.88-0.11-5.77-0.22-5.77-0.22c-4.28,0.31-3.96,1.09-11.86,1.23c1.12,0.04,2.79,0.1-0.08,0.44c-5.04,0.39-10.04,0.84-14.99,0.64
		l-0.11,3.25c3.72,0.14,7.08-0.6,10.36-0.59c3.4-0.07,6.82-0.04,10.26,0.04c6.86,0.18,13.8,0.45,20.71,0.81
		c6.91,0.38,13.82,0.9,20.7,1.68l5.19,0.61l5.18,0.55c3.4,0.39,6.75,0.95,9.77,2.13l0.02-3.04c-0.9,0.32-2.17,0.39-3.51,0.47
		l-4.05,0.31c-2.65,0.2-5.28,0.41-7.95,0.57c-5.36,0.32-10.69,0.76-16,1.21c5.88-0.35,1.99,0.13-2.46,0.69
		c2.9-0.28-0.01,0.44,0.58,0.61c0,0-4.51,0.4-9.03,0.8c-4.53,0.4-9.06,0.93-9.06,0.93c-1.59,0.57-6.4,1.33-11.02,2.16
		c-2.31,0.41-4.57,0.83-6.37,1.2c-0.89,0.19-1.68,0.36-2.33,0.55c-0.63,0.19-1.07,0.37-1.28,0.5c0,0,0.35-0.09,0.89-0.24
		c0.53-0.14,1.3-0.31,1.98-0.45c1.41-0.29,2.82-0.58,2.82-0.58c-3.69,1.06-0.98,0.97,2.52,0.79c3.51-0.18,7.82-0.42,7.34,0.14
		c4.14-1.11,9.74-1.66,16.02-2.16c6.31-0.52,13.25-1.2,20.13-2.5c3.08-0.11-2.58,0.57-0.92,0.63c3.47-0.78,7.71-1.17,15.71-1.74
		l-0.89,0.18c0.72-0.07,1.44-0.14,2.13-0.2c0.33-0.03,0.65-0.06,0.97-0.1c0.33-0.03,0.65-0.05,0.96-0.08c1.3-0.1,2.64-0.2,3.92-0.67
		l4.07-1.48l-4.06-1.52c-4.36-1.64-8.4-2.04-12.12-2.5c-1.87-0.21-3.67-0.4-5.44-0.65c-1.82-0.24-3.64-0.48-5.49-0.72
		c-7.41-0.9-15.41-1.68-26.35-2.29l1.84,0.56c-5.4-0.31-6.52-0.5-9.05-0.72c-3.12,0.25,0.68,0.39,4.54,0.57
		c3.85,0.18,7.79,0.41,4.94,0.67c-2.76-0.5-9.06-0.9-16.08-1.1c-3.51-0.09-7.19-0.11-10.7-0.03c-3.68,0.15-6.83,0.71-9.29,0.51
		l-0.12,3.7c3.33,0.17,5.81,0.16,6.94,0.34c4.22-0.29,3.57-0.41,2.95-0.49c-0.63-0.09-1.24-0.15,2.92-0.53l2.22,0.08l2.04-0.58
		c5.38-0.46,8.08-0.12,8.31,0.1c-1.33,0.02-3.68,0.25-5.07,0.39c6.89-0.16,19.76-0.93,22.15-0.86l-7.95,0.03
		c11.28-0.5,23.82-0.59,36.28-0.57c6.23,0.01,12.47,0.03,18.52-0.17c6.06-0.18,11.94-0.65,17.38-1.27l-1.68-0.09
		c8.32-0.89,11.64-1.12,15.17-1.26c3.53-0.17,7.23-0.16,16.44-0.67l-0.67,0.09c0.9-0.09,1.88-0.2,2.91-0.3
		c1.03-0.1,2.15-0.24,3.2-0.3c2.2-0.15,4.67,0.03,7.43-0.64l2.69-0.64l-2.14-1.7c-0.13-0.11-0.28-0.21-0.43-0.31
		c0.22,0.14,0.41,0.27,0.45,0.29l-0.56,2.39l0,0l0,0l0,0l0,0c-1.14,0.33-0.86,0.35,0.05,0.2l3.13-0.51l-2.48-2.23
		c-0.8-0.72-1.68-0.94-2.47-1.15c-0.8-0.19-1.56-0.28-2.1-0.36c-1.07-0.13-1.4-0.28,0.93-0.23c-9.19-0.22-11.44-0.18-12.91-0.07
		c-1.47,0.09-2.19,0.3-8.15,0.53l-2.72-0.49c-4.08,0.1-4.43,0.26-13.58-0.21c7.52,0.14-5.8-0.92,2.62-0.83
		c-19.13-1.99-28.54-0.89-37.3-2.48c-4.44,0.31-0.28,0.63,4.36,0.9s9.77,0.5,7.29,0.47c4.12,0.56-7.32,0.36-13.34,0
		c-6.12-0.29-10.42-1.75-25.84-2.14c1.53,0.05,1.64-0.02,3.17,0.02c-5.76-0.43-11.32,0.02-18.38-0.68
		c-3.99,0.47-9.18-0.42-10.36,0.31l7.07,0.22l7.07,0.18c-8.02-0.09-15.59,0.56-28.76-0.69c1.04-0.09,4.97-0.07,7.68-0.04
		c-3.84-0.44-7.43-0.27-11.41-0.77c0.6-0.36,4.88-0.11,10.1,0.16c5.22,0.27,11.37,0.56,15.67,0.43c-4.13-0.48-16.25-0.19-11.9-0.83
		c-3.12,0.38-6.92,0.14-11.23-0.2c-2.13-0.18-4.51-0.38-6.91-0.44c-1.19-0.03-2.4-0.06-3.64-0.1c-0.61-0.02-1.22-0.04-1.84-0.06
		c-0.33-0.01-0.58-0.02-0.86-0.04l-0.92-0.09c0,0,0.19-0.08,0.38-0.17c0.18-0.09,0.36-0.17,0.36-0.17
		c-0.39-0.05-0.87-0.11-1.42-0.18c-0.62-0.07-1.42-0.13-2.35-0.01l0.18,4.15c1.55-0.06,3.36-0.14,5.05-0.21
		c-1.66,0.25-3.35,0.47-5.06,0.63l-0.22-4.99c0.28-0.05,0.56-0.08,0.84-0.1c-0.28,0.01-0.56,0.04-0.84,0.07l0.22,5.06
		c4.29-0.16,8.31-0.37,12.21-0.42c3.9-0.05,7.75,0.04,11.68-0.09c-8.41,0.03-9.34,0.05-9.08-0.18c0.26-0.19,1.74-0.49-1.83-0.52
		c5.18-0.39,8.54-0.38,11.01-0.3c2.47,0.1,4.04,0.29,5.69,0.51c3.31,0.45,6.86,0.93,18.58,1.5c-3.19-0.13-11.87-0.93-6.92-0.89
		c4.44,0.34,10.34,0.86,13.06,1.26c15.55,0.75-2.36-0.62,4.27-0.55c5.26,0.86,7.64,0.18,14.47,0.34l0.02,0.48
		c17.71,1.17,4.75-0.75,20.68,0.33l-6.77,0.37l8.33,0.19l-1.74,0.47c9.07-0.03,11.88,0.18,20.76,0.63
		c-2.05-0.41,1.19-0.82,9.04-0.63c5.34,0.43-3,0.37,8.11,0.61c-2.52,0.23-5.27,0.54-10.11-0.04c-0.5,0.15-2.49,0.23-3.01,0.37
		c5.78,0.5,14.49,0.46,18.5,0.61c-1.54-0.08-3.39-0.16-4.34-0.26c0,0,4.03-0.03,8.06-0.06l8.06,0.01c2.52,0.29,0.51,0.35-1.49,0.4
		c3.26,0.09,5.53-0.03,10.32,0.18c-1.26,0.33-0.99,0.74-7.77,0.6l15.35,0.35c1.01,0.23,7.84,0.93,5.84,0.95
		c8.48,0.73,20.89,0.56,32.14,1.66c0.59-0.04,1.77-0.03,4.16,0.1c4.7,0.45,9.16,0.87,13.77,1.31c2.3,0.22,4.65,0.42,7.08,0.61
		c0.61,0.04,1.22,0.09,1.84,0.14l0.46,0.03l0.38,0.04l0.88,0.12c0.63,0.09,1.34,0.19,2.13,0.24c0.8,0.04,1.71,0.06,2.84-0.22
		l6.99-1.76l-6.33-3.26c-1.32-0.68-2.72-1.22-4.14-1.63c0,0-1.79-0.78-3.55-1.38c-1.71-0.58-3.43-1.17-3.43-1.17
		c-4.8-1.07-2.52-0.29-0.99,0.32c1.43,0.6,2.25,0.99-5.87-0.73c-11.48-2.19-4.15-1.48-8.13-2.5c-5.78-0.8-15.74-1.86-26.04-4.76
		C219.43,41.04,222.11,41.74,225.33,42.35 M104.82,25.32c2.36,0.14,7.06,0.31,8.74,0.76C110.84,26.36,108.8,25.88,104.82,25.32
		 M148.96,27.61c-1.76,0.03-4.45-0.26-7.48-0.65C143.69,27.07,146.19,27.28,148.96,27.61 M29.99,5.96c0.1,0,0.17-0.01,0.25-0.01
		C35.47,6.42,33.61,6.24,29.99,5.96 M19.13,5.26c-1.09,0.03-1.02,0.1-0.56,0.18c0.76-0.1,3.2-0.01,5.98,0.15
		C23.79,5.43,22.38,5.27,19.13,5.26 M90.88,49.49l-2.12-0.19C93.56,49.3,92.21,49.38,90.88,49.49"/>
	<path class="st0" d="M128.03,26.83c-0.66-0.12-0.84-0.22-0.99-0.32C126.11,26.53,126.08,26.63,128.03,26.83"/>
	<path class="st0" d="M234.26,54.95l-0.37-0.03c-0.2,0.01-0.32,0.04-0.38,0.06L234.26,54.95z"/>
	<path class="st0" d="M187.81,15.89c2.22,0.35,3.46,0.6,4.27,0.79C192.21,16.58,191.21,16.35,187.81,15.89"/>
	<path class="st0" d="M38.7,0.73l-6.99-0.12c3.38,0.09,4.59,0.24,6.29,0.38C37.84,0.87,36.51,0.66,38.7,0.73"/>
	<path class="st0" d="M99.25,4.28c1.02-0.07,2.17-0.04,3.17-0.12l-0.28-0.22C97.79,4.03,94.75,4.26,99.25,4.28"/>
	<path class="st0" d="M45.11,2.57c0.54,0.42,4.93,0.45,9.81,0.51c-0.29-0.01-0.57-0.02-0.86-0.03C55.51,2.53,50.31,2.57,45.11,2.57"
		/>
	<path class="st0" d="M56.06,3.09c1.51,0.03,3.04,0.06,4.52,0.09C61.15,2.96,58.74,3.1,56.06,3.09"/>
	<path class="st0" d="M5.35,5.18C3.04,5.05,3.9,5.69,2.59,5.51C0,5.96,18,5.11,5.35,5.18"/>
	<polygon class="st0" points="49.02,4.04 47.29,3.48 44.53,3.78 	"/>
	<path class="st0" d="M10.39,2.48l7.82,0.31c-0.12-0.09,0.88-0.11,2.1-0.12C15.49,2.51,10.21,2.33,10.39,2.48"/>
	<path class="st0" d="M20.31,2.67c2.51,0.08,4.9,0.14,6.3,0.11C25.25,2.73,22.33,2.66,20.31,2.67"/>
	<polygon class="st0" points="38.33,3.81 36.02,3.62 30.5,3.39 	"/>
	<path class="st0" d="M73.57,6.98l8.52,0.5c0.88-0.1-1.43-0.39-4.61-0.56C75.44,6.89,72.28,6.72,73.57,6.98"/>
	<path class="st0" d="M47.91,3.8c2.3,0.26,2.44,0.38,3.73,0.64l0.3-0.6L47.91,3.8z"/>
	<path class="st0" d="M72.76,5.4c0.86-0.12,12.4,0.43,1.6-0.34C73.48,5.17,64.94,4.7,72.76,5.4"/>
	<polygon class="st0" points="200.69,19.29 198.53,19.01 198.71,20.06 	"/>
	<path class="st0" d="M312.16,40.33c-9.74-2.62-2.48,0.06-11.26-2.44c-2.36-0.34,7.18,2.05,4.77,1.66
		C311.65,40.77,314.72,41.63,312.16,40.33"/>
	<path class="st0" d="M305.67,39.56c-0.96-0.19-1.98-0.39-3.06-0.6C304.34,39.32,305.16,39.47,305.67,39.56"/>
	<polygon class="st0" points="60.72,69.81 54.25,70.77 58.46,70.34 	"/>
	<path class="st0" d="M48.55,73.15l-0.77-0.16c-0.38-0.09-0.74-0.19-0.74-0.19c-0.76,0.26-1.5,0.47-2.24,0.59l0.64,3.75
		c0.59-0.28,1.15-0.73,1.53-1.18c-0.34,0.34-0.91,0.77-1.58,1.02l-0.59-3.43C46.03,73.58,47.72,73.23,48.55,73.15"/>
	<path class="st0" d="M86.98,22.18l-0.51,0.11c0.99,0.27,2.5,0.44,5.53,0.77L86.98,22.18z"/>
	<polygon class="st0" points="174.69,32.47 173.18,32.27 175.92,33.21 	"/>
	<path class="st0" d="M247.82,45.52c-2.98-0.66-6.52-1.22-9.5-1.82C244.83,44.85,248.48,46.41,247.82,45.52"/>
</g>
</svg>
